# xmcd CD database file
#
# Track frame offsets:
#	150
#	16108
#	40200
#	63512
#	87328
#	106420
#	121821
#	138839
#	155355
#	179786
#	220148
#	237764
#
# Disc length: 3590 seconds
#
# Revision: 0
# Processed by: cddbd v1.5.2PL0 Copyright (c) Steve Scherf et al.
# Submitted via: CDex 1.51
#
DISCID=9c0e040c
DTITLE=Lipbone Redding - Hop the Fence
DYEAR=2007
DGENRE=Rhythmic Soul
TTITLE0=Dogs of Santiago (Radio Mix)
TTITLE1=Sixteen Tons
TTITLE2=Follow the Money
TTITLE3=Love is the Answer for World Peace
TTITLE4=Hollywood an` Vine
TTITLE5=Old Flame
TTITLE6=Tuscaloosa Suntan
TTITLE7=PicNic Basket
TTITLE8=Closing Time
TTITLE9=Indian Rose
TTITLE10=Travelin` Light
TTITLE11=Dogs of Santiago (Long Version)
EXTD=YEAR: 2007
EXTT0=
EXTT1=
EXTT2=
EXTT3=
EXTT4=
EXTT5=
EXTT6=
EXTT7=
EXTT8=
EXTT9=
EXTT10=
EXTT11=
PLAYORDER=
